<svg width="271" height="251" viewBox="0 0 271 251" fill="none" xmlns="http://www.w3.org/2000/svg">
<path d="M135.5 251C210.335 251 271 219.975 271 181.703C271 143.432 210.335 112.407 135.5 112.407C60.6654 112.407 0 143.432 0 181.703C0 219.975 60.6654 251 135.5 251Z" fill="#F5F5F5" fill-opacity="0.8"/>
<path d="M81.9838 227.257L113.766 211.001C114.028 210.866 114.245 210.672 114.396 210.44C114.547 210.207 114.626 209.943 114.626 209.675C114.626 209.407 114.547 209.143 114.396 208.911C114.245 208.678 114.028 208.485 113.766 208.35L81.9838 192.093C81.2538 191.722 80.4266 191.527 79.5847 191.527C78.7429 191.527 77.9157 191.722 77.1856 192.093L45.4037 208.35C45.1419 208.485 44.9247 208.678 44.7737 208.911C44.6227 209.143 44.5432 209.407 44.5432 209.675C44.5432 209.943 44.6227 210.207 44.7737 210.44C44.9247 210.672 45.1419 210.866 45.4037 211.001L77.1856 227.257C77.9157 227.628 78.7429 227.824 79.5847 227.824C80.4266 227.824 81.2538 227.628 81.9838 227.257Z" fill="#E0E0E0"/>
<path d="M126.287 204.614L192.219 170.892C192.579 170.707 192.877 170.443 193.085 170.124C193.292 169.805 193.401 169.444 193.401 169.076C193.401 168.708 193.292 168.347 193.085 168.028C192.877 167.709 192.579 167.444 192.219 167.26L139.507 140.028C138.662 139.592 137.702 139.362 136.725 139.362C135.747 139.362 134.787 139.592 133.942 140.028L68.0285 173.74C67.6691 173.924 67.3706 174.189 67.1631 174.507C66.9557 174.826 66.8464 175.187 66.8464 175.555C66.8464 175.923 66.9557 176.285 67.1631 176.603C67.3706 176.922 67.6691 177.187 68.0285 177.371L120.747 204.603C121.588 205.037 122.543 205.267 123.515 205.269C124.488 205.271 125.445 205.045 126.287 204.614Z" fill="#E0E0E0"/>
<path d="M179.142 219.222C195.482 219.222 208.728 212.449 208.728 204.094C208.728 195.739 195.482 188.966 179.142 188.966C162.801 188.966 149.555 195.739 149.555 204.094C149.555 212.449 162.801 219.222 179.142 219.222Z" fill="#E0E0E0"/>
<path d="M51.8095 60.8783V86.8398L26.4272 99.8261V73.8591L51.8095 60.8783Z" fill="#FAFAFA" fill-opacity="0.72"/>
<path d="M49.0641 62.2806V85.4488L26.4272 97.011V73.8592L49.0641 62.2806ZM50.4368 60.1719L25.0483 73.1581V99.1416L26.4272 99.8427L51.8095 86.8619V60.9003L50.4368 60.1938V60.1719Z" fill="#E0E0E0"/>
<path d="M50.4368 62.9925V86.1443L27.7999 97.7174V74.5601L50.4368 62.9925ZM51.8095 60.8838L26.4272 73.8591V99.8206L51.8095 86.8398V60.8783V60.8838Z" fill="#EBEBEB"/>
<path d="M48.087 80.9026L28.8818 90.7231L34.5519 77.6438L38.4844 81.779L42.4974 76.7126L48.087 80.9026Z" fill="#E0E0E0"/>
<path d="M40.9094 74.2729C41.5941 73.2224 41.5953 72.0876 40.9121 71.7383C40.229 71.3889 39.1201 71.9572 38.4354 73.0077C37.7507 74.0582 37.7495 75.193 38.4327 75.5424C39.1158 75.8918 40.2247 75.3234 40.9094 74.2729Z" fill="#E0E0E0"/>
<path d="M60.2804 28.5469V49.234L40.0549 59.5748V38.8932L60.2804 28.5469Z" fill="#FAFAFA" fill-opacity="0.72"/>
<path d="M58.0917 29.6698V48.1167L40.0551 57.3347V38.8932L58.0917 29.6698ZM59.1861 27.9883L38.9607 38.3455V59.0271L40.0551 59.5748L60.2806 49.234V28.5524L59.1861 28.0047V27.9883Z" fill="#E0E0E0"/>
<path d="M59.1859 30.2283V48.6753L41.1494 57.8987V39.4409L59.1859 30.2174V30.2283ZM60.2804 28.5414L40.0549 38.8931V59.5747L60.2804 49.2339V28.5523V28.5414Z" fill="#EBEBEB"/>
<path d="M57.3125 44.5018L42.0151 52.3286L46.5289 41.9111L49.6638 45.2029L52.8606 41.1663L57.3125 44.5018Z" fill="#E0E0E0"/>
<path d="M52.0258 38.0058C51.9989 38.4349 51.8584 38.8523 51.6156 39.2243C51.3728 39.5964 51.0346 39.9126 50.6284 40.1474C49.8555 40.5417 49.231 40.2186 49.231 39.4299C49.2579 39.0008 49.3984 38.5834 49.6412 38.2114C49.8839 37.8394 50.2221 37.5231 50.6284 37.2883C51.4075 36.894 52.0258 37.2171 52.0258 38.0058Z" fill="#E0E0E0"/>
<path d="M121.099 197.91V201.826C121.118 202.022 121.196 202.21 121.326 202.37C121.455 202.53 121.631 202.657 121.835 202.736C122.384 202.984 122.992 203.114 123.609 203.114C124.226 203.114 124.834 202.984 125.384 202.736C125.587 202.657 125.763 202.53 125.893 202.37C126.022 202.21 126.101 202.022 126.12 201.826V197.91H121.099Z" fill="#EBEBEB"/>
<path d="M182.523 166.51V170.426C182.543 170.622 182.621 170.81 182.75 170.97C182.88 171.13 183.056 171.256 183.259 171.335C183.81 171.581 184.417 171.709 185.034 171.709C185.65 171.709 186.258 171.581 186.808 171.335C187.012 171.256 187.188 171.13 187.317 170.97C187.447 170.81 187.525 170.622 187.544 170.426V166.51H182.523Z" fill="#EBEBEB"/>
<path d="M83.8633 178.784V182.706C83.8824 182.902 83.9608 183.09 84.0903 183.25C84.2198 183.41 84.3955 183.536 84.5991 183.615C85.1495 183.86 85.7573 183.988 86.3737 183.988C86.99 183.988 87.5978 183.86 88.1483 183.615C88.3518 183.536 88.5276 183.41 88.6571 183.25C88.7866 183.09 88.865 182.902 88.8841 182.706V178.784H83.8633Z" fill="#EBEBEB"/>
<path d="M134.869 96.3207L84.1167 120.825V163.465L147.062 133.565L134.869 96.3207Z" fill="#455A64"/>
<path d="M176.742 133.565L173.57 131.949L142.808 116.372C142.549 116.242 142.332 116.055 142.177 115.829C142.022 115.604 141.935 115.347 141.924 115.083C141.913 114.819 141.978 114.557 142.113 114.321C142.249 114.086 142.449 113.885 142.697 113.738L144.688 112.555L142.215 97.4873C142.046 96.4739 141.625 95.5063 140.984 94.654C140.342 93.8017 139.496 93.0858 138.505 92.5579L133.972 90.148C133.754 90.033 133.505 89.9712 133.251 89.9691C132.996 89.9669 132.746 90.0243 132.525 90.1356C132.304 90.2468 132.12 90.4079 131.992 90.6025C131.864 90.7971 131.796 91.0182 131.796 91.2434V146.13C131.798 147.078 132.085 148.008 132.629 148.824C133.172 149.641 133.952 150.314 134.888 150.774L177.682 171.943C178.03 172.115 178.421 172.204 178.82 172.204C179.218 172.204 179.609 172.115 179.957 171.943L180.124 171.861C180.47 171.672 180.754 171.407 180.951 171.093C181.148 170.778 181.251 170.424 181.25 170.065V140.455C181.248 139.057 180.83 137.684 180.039 136.475C179.247 135.265 178.11 134.262 176.742 133.565Z" fill="#455A64"/>
<path d="M77.408 119.511V119.133C77.4081 118.233 77.675 117.349 78.1817 116.57C78.6884 115.79 79.4174 115.142 80.2955 114.691L129.316 89.4631C129.857 89.1792 130.475 89.0294 131.103 89.0294C131.732 89.0294 132.349 89.1792 132.89 89.4631L138.196 92.2948C138.54 92.4762 138.826 92.734 139.024 93.0427C139.222 93.3514 139.327 93.7005 139.327 94.0557C139.327 94.4108 139.222 94.7599 139.024 95.0686C138.826 95.3773 138.54 95.6351 138.196 95.8166L86.5963 122.846L77.408 119.511Z" fill="#37474F"/>
<path d="M141.899 114.915V157.987L176.08 171.839C176.784 172.124 177.553 172.258 178.325 172.229C179.098 172.201 179.852 172.011 180.526 171.675L185.683 169.095V132.858L141.899 114.915Z" fill="#263238"/>
<path d="M141.157 191.349L168.197 177.919C169.51 177.271 170.608 176.328 171.38 175.185C172.152 174.043 172.572 172.741 172.597 171.409C172.622 170.078 172.252 168.764 171.523 167.599C170.794 166.435 169.732 165.46 168.444 164.774L141.534 150.347C141.462 150.31 141.38 150.291 141.296 150.291C141.213 150.291 141.131 150.31 141.058 150.347L99.2348 170.826C99.1629 170.863 99.1033 170.916 99.0619 170.98C99.0205 171.044 98.9987 171.116 98.9987 171.19C98.9987 171.264 99.0205 171.336 99.0619 171.4C99.1033 171.464 99.1629 171.517 99.2348 171.554L136.334 191.272C137.061 191.655 137.889 191.863 138.734 191.877C139.58 191.89 140.415 191.708 141.157 191.349Z" fill="#263238"/>
<path d="M138.325 189.514C138.327 189.844 138.426 190.169 138.612 190.455C138.799 190.741 139.067 190.979 139.389 191.145C139.712 191.311 140.078 191.399 140.451 191.401C140.824 191.404 141.191 191.319 141.516 191.157L174.905 174.671C175.879 174.189 176.689 173.485 177.253 172.633C177.817 171.781 178.115 170.811 178.115 169.824V166.915L139.828 187.323C139.379 187.542 139.004 187.864 138.743 188.255C138.482 188.646 138.344 189.092 138.344 189.547L138.325 189.514Z" fill="#455A64"/>
<path d="M140.879 186.775L176.254 169.544C176.804 169.276 177.266 168.884 177.594 168.409C177.921 167.934 178.103 167.391 178.121 166.835C178.139 166.278 177.993 165.727 177.697 165.236C177.401 164.745 176.965 164.33 176.433 164.034L142.301 145.061L99.5132 166.006L138.48 186.775C138.844 186.963 139.258 187.062 139.68 187.062C140.101 187.062 140.515 186.963 140.879 186.775Z" fill="#37474F"/>
<path d="M139.432 185.368L175.153 167.419L141.3 143.407L98.5114 164.357L137.973 185.351C138.193 185.468 138.444 185.53 138.7 185.533C138.956 185.536 139.209 185.479 139.432 185.368Z" fill="#263238"/>
<path d="M138.325 174.506V182.695C138.327 183.025 138.426 183.349 138.612 183.636C138.799 183.922 139.067 184.16 139.389 184.326C139.712 184.492 140.078 184.58 140.451 184.582C140.824 184.584 141.191 184.5 141.516 184.338L175.153 167.419C176.061 166.964 176.816 166.303 177.341 165.504C177.865 164.705 178.141 163.797 178.139 162.873V151.278L140.644 170.892C139.935 171.263 139.349 171.792 138.942 172.426C138.535 173.06 138.323 173.777 138.325 174.506Z" fill="#455A64"/>
<path d="M140.916 171.642L176.643 153.913C177.091 153.691 177.466 153.368 177.729 152.978C177.993 152.587 178.136 152.142 178.144 151.687C178.152 151.233 178.025 150.784 177.776 150.386C177.526 149.988 177.164 149.656 176.723 149.421L141.3 130.427L98.5114 151.377L136.52 171.593C137.182 171.945 137.938 172.135 138.71 172.143C139.483 172.152 140.244 171.979 140.916 171.642Z" fill="#37474F"/>
<path d="M152.225 111.251C151.359 110.805 150.369 110.583 149.368 110.612C148.366 110.64 147.394 110.916 146.562 111.41L144.663 112.538L142.672 113.721C142.425 113.869 142.224 114.069 142.089 114.305C141.953 114.54 141.888 114.802 141.899 115.066C141.91 115.33 141.998 115.587 142.152 115.813C142.307 116.038 142.524 116.225 142.784 116.356L173.545 131.933L176.637 133.488C176.686 133.488 176.73 133.548 176.785 133.57C178.179 134.304 179.327 135.352 180.113 136.608C180.898 137.864 181.293 139.283 181.256 140.718V170.092C181.257 170.452 181.155 170.806 180.958 171.12C180.761 171.435 180.476 171.699 180.131 171.888L187.73 168.087C188.617 167.644 189.355 167.001 189.869 166.222C190.383 165.444 190.654 164.558 190.654 163.656V135.175C190.654 133.925 190.284 132.697 189.581 131.613C188.878 130.529 187.867 129.627 186.648 128.997L152.225 111.251Z" fill="#455A64"/>
<path d="M186.617 129.008L152.225 111.251C151.359 110.805 150.369 110.583 149.368 110.612C148.366 110.64 147.394 110.916 146.562 111.41L144.663 112.538L142.672 113.721C142.425 113.869 142.224 114.069 142.089 114.305C141.953 114.54 141.888 114.802 141.899 115.066C141.91 115.33 141.998 115.587 142.152 115.813C142.307 116.038 142.524 116.225 142.784 116.356L173.545 131.933L176.637 133.488C176.686 133.488 176.73 133.548 176.785 133.57C178.291 134.324 179.496 135.472 180.236 136.857L189.541 131.582C188.832 130.516 187.825 129.629 186.617 129.008Z" fill="#37474F"/>
<path d="M107.131 82.562C107.131 82.562 105.783 73.4426 122.725 73.4426C136.848 73.4426 136.328 86.9328 127.301 90.8106L107.131 82.562Z" fill="#263238"/>
<path d="M108.528 91.2159C111.797 91.2159 114.446 88.8691 114.446 85.9743C114.446 83.0794 111.797 80.7327 108.528 80.7327C105.26 80.7327 102.611 83.0794 102.611 85.9743C102.611 88.8691 105.26 91.2159 108.528 91.2159Z" fill="#263238"/>
<path d="M134.486 85.9634C134.487 86.798 134.209 87.6141 133.686 88.3085C133.163 89.0029 132.42 89.5443 131.549 89.8642C130.679 90.184 129.721 90.268 128.797 90.1055C127.873 89.9429 127.024 89.5411 126.358 88.951C125.692 88.3608 125.238 87.6089 125.055 86.7903C124.871 85.9717 124.966 85.1232 125.327 84.3524C125.688 83.5815 126.299 82.9229 127.083 82.4599C127.867 81.9969 128.789 81.7504 129.731 81.7515C130.992 81.7515 132.201 82.1952 133.093 82.9851C133.985 83.775 134.486 84.8463 134.486 85.9634Z" fill="#263238"/>
<path d="M109.61 98.2924C112.878 98.2924 115.528 95.9457 115.528 93.0508C115.528 90.156 112.878 87.8092 109.61 87.8092C106.342 87.8092 103.693 90.156 103.693 93.0508C103.693 95.9457 106.342 98.2924 109.61 98.2924Z" fill="#263238"/>
<path d="M116.195 101.562C119.464 101.562 122.113 99.2154 122.113 96.3206C122.113 93.4257 119.464 91.079 116.195 91.079C112.927 91.079 110.278 93.4257 110.278 96.3206C110.278 99.2154 112.927 101.562 116.195 101.562Z" fill="#263238"/>
<path d="M161.327 178.505L173.304 192.598L169.978 194.925C169.978 194.925 165.179 194.038 163.491 188.418C162.49 185.167 161.766 181.853 161.327 178.505Z" fill="#FFA8A7"/>
<path d="M160.233 177.546C160.233 177.546 156.912 180.214 158.378 182.607C159.843 185.001 162.397 186.918 162.477 190.067C162.558 193.216 164.332 198.83 168.271 199.718C172.21 200.605 176.068 199.389 175.994 198.151C175.92 196.913 173.292 192.597 173.292 192.597C173.292 192.597 169.668 194.586 166.997 192.669C164.326 190.752 163.708 182.678 163.708 182.678L160.233 177.546Z" fill="#1B4965"/>
<path opacity="0.2" d="M160.233 177.546C160.233 177.546 156.912 180.214 158.378 182.607C159.843 185.001 162.397 186.918 162.477 190.067C162.558 193.216 164.332 198.83 168.271 199.718C172.21 200.605 176.068 199.389 175.994 198.151C175.92 196.913 173.292 192.597 173.292 192.597C173.292 192.597 169.668 194.586 166.997 192.669C164.326 190.752 163.708 182.678 163.708 182.678L160.233 177.546Z" fill="black"/>
<path d="M139.828 133.91C139.828 133.91 166.497 143.906 168.661 144.864C170.825 145.823 174.609 147.603 174.226 155.271C173.842 162.939 171.672 182.049 171.672 182.049L157.049 157.139L119.287 141.222L139.828 133.91Z" fill="#1B4965"/>
<path opacity="0.5" d="M139.828 133.91C139.828 133.91 166.497 143.906 168.661 144.864C170.825 145.823 174.609 147.603 174.226 155.271C173.842 162.939 171.672 182.049 171.672 182.049L157.049 157.139L119.287 141.222L139.828 133.91Z" fill="black"/>
<path d="M172.741 172.19C172.173 177.634 171.672 182.048 171.672 182.048L157.048 157.138L130.126 145.806L136.242 141.567C144.849 145.401 157.345 150.949 161.074 152.642C165.828 154.794 167.294 160.896 171.387 169.369C171.82 170.267 172.278 171.215 172.741 172.19Z" fill="#1B4965"/>
<path opacity="0.7" d="M172.741 172.19C172.173 177.634 171.672 182.048 171.672 182.048L157.048 157.138L130.126 145.806L136.242 141.567C144.849 145.401 157.345 150.949 161.074 152.642C165.828 154.794 167.294 160.896 171.387 169.369C171.82 170.267 172.278 171.215 172.741 172.19Z" fill="black"/>
<path d="M137.62 139.004L134.869 142.69L137.021 142.98L137.62 139.004Z" fill="#1B4965"/>
<path opacity="0.7" d="M137.62 139.004L134.869 142.69L137.021 142.98L137.62 139.004Z" fill="black"/>
<path d="M173.143 198.151C173.143 198.151 172.76 198.699 172.76 201.569C172.76 204.439 173.997 204.981 175.635 205.496C177.274 206.011 181.954 209.04 183.259 210.371C184.564 211.702 189.776 213.109 194.927 212.271C200.078 211.433 201.178 208.437 198.692 206.526C196.207 204.614 189.146 201.049 189.146 201.049L173.143 198.151Z" fill="#1B4965"/>
<path d="M111.385 139.809L122.861 137.481C122.861 137.481 154.723 151.634 159.472 153.792C164.221 155.95 165.693 162.046 169.786 170.519C172.877 176.895 176.884 185.642 179.537 190.894C179.537 190.894 177.651 195.331 171.672 194.219C169.644 190.303 166.064 186.797 160.863 180.581C156.356 175.191 154.6 170.432 153.913 167.578C153.714 166.735 153.251 165.96 152.576 165.341C151.901 164.721 151.042 164.284 150.098 164.078C144.836 162.944 134.121 160.491 122.805 157.035C106.871 152.149 111.385 139.809 111.385 139.809Z" fill="#1B4965"/>
<path opacity="0.5" d="M111.385 139.809L122.861 137.481C122.861 137.481 154.723 151.634 159.472 153.792C164.221 155.95 165.693 162.046 169.786 170.519C172.877 176.895 176.884 185.642 179.537 190.894C179.537 190.894 177.651 195.331 171.672 194.219C169.644 190.303 166.064 186.797 160.863 180.581C156.356 175.191 154.6 170.432 153.913 167.578C153.714 166.735 153.251 165.96 152.576 165.341C151.901 164.721 151.042 164.284 150.098 164.078C144.836 162.944 134.121 160.491 122.805 157.035C106.871 152.149 111.385 139.809 111.385 139.809Z" fill="black"/>
<path d="M179.537 190.872C180.409 192.603 181.139 193.956 181.633 194.706C183.63 197.784 189.467 201.12 191.526 202.692C193.585 204.264 194 204.883 192.058 206.197C187.112 209.571 182.783 205.89 180.001 203.53C178.135 202.018 176.089 200.692 173.898 199.575C173.736 199.496 173.597 199.385 173.49 199.251C173.383 199.118 173.311 198.964 173.28 198.803C172.975 197.206 172.432 195.651 171.666 194.18C177.651 195.309 179.537 190.872 179.537 190.872Z" fill="#FFA8A7"/>
<path d="M123.553 149.459L143.618 159.718L176.971 142.635L156.912 132.168L123.553 149.459Z" fill="#EBEBEB"/>
<path d="M141.461 146.54L148.986 142.69L144.268 140.28L136.743 144.13L141.461 146.54Z" fill="#E0E0E0"/>
<path d="M144.472 157.155L134.331 151.87L154.142 141.249L144.472 157.155Z" fill="#E0E0E0"/>
<path d="M143.878 125.459L151.916 128.789C154.313 129.326 156.676 129.973 158.996 130.728C158.996 130.728 164.561 132.754 164.833 134.08C165.105 135.405 160.641 138.598 156.739 137.043C155.711 136.566 154.615 136.214 153.481 135.997C152.436 135.898 149.319 135.449 147.069 133.565L140.57 132.004C140.57 132.004 137.231 126.28 143.878 125.459Z" fill="#FFA8A7"/>
<path d="M149.103 135.372C150.037 136.254 152.683 138.478 153.264 139.124C153.845 139.771 155.206 138.111 152.813 135.646C150.741 134.974 148.793 134.034 147.031 132.858C147.649 133.741 148.342 134.582 149.103 135.372Z" fill="#FFA8A7"/>
<path d="M127.461 100.741C129.305 100.481 131.193 100.81 132.789 101.667C134.386 102.524 135.587 103.856 136.18 105.424C137.026 107.688 137.571 110.031 137.806 112.407C138.505 119.73 138.696 123.389 138.696 123.389L147.001 126.724C147.001 126.724 142.518 126.916 142.821 132.524L132.476 130.213L127.461 100.741Z" fill="#FFA8A7"/>
<path d="M138.047 114.987C137.973 114.187 137.893 113.327 137.806 112.407C137.571 110.031 137.026 107.688 136.18 105.424C135.587 103.856 134.386 102.524 132.789 101.667C131.193 100.81 129.305 100.481 127.461 100.741L130.497 118.602L138.047 114.987Z" fill="#1B4965"/>
<path opacity="0.2" d="M138.047 114.987C137.973 114.187 137.893 113.327 137.806 112.407C137.571 110.031 137.026 107.688 136.18 105.424C135.587 103.856 134.386 102.524 132.789 101.667C131.193 100.81 129.305 100.481 127.461 100.741L130.497 118.602L138.047 114.987Z" fill="black"/>
<path d="M138.696 123.388C137.757 123.64 136.906 124.1 136.223 124.725C136.223 124.725 137.225 123.038 138.628 122.534L138.696 123.388Z" fill="#F28F8F"/>
<path d="M114.359 103.649L108.528 105.84V120.973C110.356 124.847 111.346 128.99 111.447 133.187V140.68C111.447 140.68 123.356 144.437 132.593 140.373C137.07 138.401 139.834 133.905 139.834 133.905C139.834 133.905 134.887 131.341 134.887 128.208C134.983 125.76 135.312 123.323 135.871 120.924C136.948 119.975 137.764 118.82 138.256 117.547C138.749 116.275 138.903 114.919 138.709 113.584C138.053 108.589 127.437 100.735 127.437 100.735L123.479 101.217L114.359 103.649Z" fill="#1B4965"/>
<path d="M114.359 103.649L123.504 101.223V91.4185H114.359V103.649Z" fill="#FFA8A7"/>
<path d="M123.504 101.223C121.634 100.608 119.924 99.6639 118.479 98.4465C117.033 97.2291 115.882 95.7643 115.095 94.1408V91.4022H123.504V101.223Z" fill="#F28F8F"/>
<path d="M125.637 78.1367C125.637 78.1367 134.003 78.5694 132.965 91.2379C132.488 97.0985 130.943 100.133 125.848 99.9082C120.079 99.6563 111.886 96.1454 112.424 86.1223C112.962 76.0992 125.637 78.1367 125.637 78.1367Z" fill="#FFA8A7"/>
<path d="M114.359 91.4186C114.359 91.4186 116.653 91.9663 116.653 89.0415C116.653 89.0415 126.843 88.4281 129.094 79.473C129.094 79.473 128.086 76.7892 121.723 76.7892C115.361 76.7892 110.012 81.7734 111.676 88.6252L114.359 91.4186Z" fill="#263238"/>
<path d="M126.837 88.6964V93.0507L129.712 92.2675L126.837 88.6964Z" fill="#F28F8F"/>
<path d="M122.515 89.1565C122.515 89.332 122.574 89.5035 122.684 89.6494C122.794 89.7953 122.95 89.9091 123.133 89.9762C123.316 90.0434 123.518 90.0609 123.712 90.0267C123.906 89.9925 124.085 89.908 124.225 89.7839C124.365 89.6598 124.46 89.5017 124.499 89.3296C124.538 89.1574 124.518 88.979 124.442 88.8169C124.366 88.6548 124.238 88.5162 124.073 88.4187C123.908 88.3212 123.715 88.2692 123.516 88.2692C123.251 88.2692 122.996 88.3626 122.808 88.529C122.62 88.6954 122.515 88.9211 122.515 89.1565Z" fill="#263238"/>
<path d="M129.094 88.5431C129.094 88.7185 129.153 88.8901 129.263 89.036C129.373 89.1819 129.529 89.2956 129.712 89.3628C129.895 89.43 130.097 89.4475 130.291 89.4133C130.485 89.3791 130.664 89.2946 130.804 89.1705C130.944 89.0464 131.039 88.8883 131.078 88.7162C131.117 88.544 131.097 88.3656 131.021 88.2035C130.945 88.0414 130.817 87.9028 130.652 87.8053C130.487 87.7078 130.294 87.6558 130.096 87.6558C129.964 87.6558 129.834 87.6787 129.712 87.7233C129.591 87.7679 129.48 87.8333 129.387 87.9156C129.294 87.998 129.22 88.0959 129.17 88.2035C129.12 88.3112 129.094 88.4265 129.094 88.5431Z" fill="#263238"/>
<path d="M131.313 86.6918L129.353 85.6621C129.353 85.6621 130.108 84.972 130.856 85.3883C131.072 85.5391 131.232 85.7444 131.313 85.9771C131.395 86.2098 131.395 86.459 131.313 86.6918Z" fill="#263238"/>
<path d="M126.584 94.4967C125.443 94.5685 124.308 94.2984 123.362 93.7299C123.362 93.7299 123.139 95.2361 124.562 95.5209C125.984 95.8057 126.584 94.4967 126.584 94.4967Z" fill="#F28F8F"/>
<path d="M115.169 91.7472C115.203 91.0088 115.049 90.2732 114.718 89.5947C114.557 89.1735 114.261 88.8031 113.865 88.5296C113.47 88.256 112.992 88.0912 112.492 88.0556C109.92 87.9899 109.573 90.1808 109.611 90.964C109.703 93.0124 111.571 95.2252 115.058 95.3074L115.169 91.7472Z" fill="#FFA8A7"/>
<path d="M123.504 101.223L126.2 104.328C126.504 104.677 126.719 105.081 126.827 105.512C126.936 105.942 126.938 106.388 126.831 106.819C126.724 107.25 126.512 107.654 126.21 108.005C125.908 108.355 125.522 108.643 125.081 108.847C123.884 109.401 122.507 109.57 121.185 109.324C119.863 109.079 118.678 108.434 117.834 107.499L114.359 103.665L123.504 101.223Z" fill="#FFA8A7"/>
<path d="M123.554 138.577L131.202 142.263C132.373 142.182 133.55 142.182 134.721 142.263C136.069 142.405 139.667 142.986 140.589 143.024C141.51 143.062 140.626 144.596 138.196 144.459C138.196 144.459 143.68 146.683 143.872 148.019C144.064 149.356 139.476 152.401 135.642 150.686C134.641 150.167 133.563 149.774 132.439 149.52C131.394 149.383 128.309 148.835 126.144 146.852L119.732 145.04C119.732 145.04 116.876 139.163 123.554 138.577Z" fill="#FFA8A7"/>
<path d="M108.528 105.845C108.528 105.845 113.172 108.688 112.399 117.424C111.934 122.723 111.934 128.046 112.399 133.346L123.554 138.576C122.352 139.28 121.371 140.242 120.703 141.372C120.035 142.502 119.701 143.764 119.732 145.039C119.732 145.039 103.693 142.115 102.735 138.807C101.776 135.498 101.424 119.669 101.424 116.898C101.424 114.127 102.728 108.047 108.528 105.845Z" fill="#FFA8A7"/>
<path d="M101.424 116.925C101.424 118.092 101.492 121.603 101.634 125.514C104.957 126.711 108.655 126.808 112.053 125.787C112.053 123.35 112.127 120.48 112.399 117.424C113.172 108.688 108.528 105.845 108.528 105.845C102.728 108.047 101.424 114.17 101.424 116.925Z" fill="#1B4965"/>
<path opacity="0.2" d="M101.424 116.925C101.424 118.092 101.492 121.603 101.634 125.514C104.957 126.711 108.655 126.808 112.053 125.787C112.053 123.35 112.127 120.48 112.399 117.424C113.172 108.688 108.528 105.845 108.528 105.845C102.728 108.047 101.424 114.17 101.424 116.925Z" fill="black"/>
<path d="M112.387 133.346C111.159 133.32 109.939 133.518 108.801 133.926C109.824 133.214 111.034 132.743 112.319 132.557L112.387 133.346Z" fill="#F28F8F"/>
<path d="M181.621 123.06L178.164 143.281C178.164 143.281 178.164 143.281 178.164 143.314L143.538 161.109C143.529 161.113 143.519 161.115 143.509 161.115C143.499 161.114 143.489 161.111 143.481 161.106C143.473 161.101 143.466 161.094 143.462 161.086C143.458 161.078 143.456 161.069 143.457 161.06L146.84 141.452C146.914 141.035 147.09 140.636 147.355 140.285C147.619 139.933 147.967 139.636 148.373 139.415L180.075 122.145C180.242 122.056 180.434 122.01 180.629 122.014C180.824 122.018 181.014 122.071 181.176 122.167C181.338 122.263 181.466 122.398 181.545 122.556C181.624 122.714 181.65 122.889 181.621 123.06Z" fill="#FAFAFA"/>
<path d="M143.464 161.11L124.988 151.618C124.562 151.397 124.209 151.082 123.963 150.704C123.716 150.325 123.586 149.897 123.584 149.46L143.649 159.718L143.464 161.11Z" fill="#E0E0E0"/>
<path d="M161.568 142.547C161.568 143.988 162.718 144.574 164.128 143.851C164.872 143.421 165.49 142.842 165.934 142.161C166.378 141.479 166.634 140.715 166.682 139.929C166.682 138.483 165.538 137.903 164.128 138.62C163.384 139.051 162.764 139.631 162.319 140.313C161.875 140.996 161.617 141.761 161.568 142.547Z" fill="#E0E0E0"/>
<path opacity="0.2" d="M127.462 122.014C127.462 122.014 120.468 123.701 116.758 119.045C116.758 119.045 119.157 125.054 127.462 122.014Z" fill="black"/>
<path d="M108.064 80.3986C108.064 80.3986 106.364 76.5646 105.344 77.0302C104.324 77.4957 106.395 79.9276 106.395 79.9276C106.395 79.9276 102.92 78.7226 102.629 79.4346C102.339 80.1467 107.069 81.7515 107.069 81.7515L108.064 80.3986Z" fill="#263238"/>
<path d="M122.367 161.86L119.195 160.217L88.4328 144.64C88.1739 144.509 87.9571 144.321 87.8029 144.095C87.6487 143.869 87.5622 143.612 87.5517 143.348C87.5412 143.085 87.6069 142.823 87.7427 142.588C87.8786 142.352 88.0799 142.152 88.3277 142.005L90.3125 140.822L87.8392 125.76C87.672 124.746 87.2523 123.778 86.6107 122.925C85.9691 122.073 85.1215 121.357 84.1293 120.831L79.5969 118.426C79.3787 118.309 79.1292 118.246 78.8743 118.243C78.6193 118.24 78.368 118.297 78.1463 118.409C77.9245 118.521 77.7404 118.682 77.6128 118.878C77.4853 119.074 77.4188 119.296 77.4204 119.522V174.424C77.423 175.372 77.7108 176.302 78.2542 177.118C78.7976 177.935 79.577 178.608 80.5121 179.069L123.306 200.238C123.651 200.412 124.04 200.506 124.437 200.51C124.834 200.515 125.226 200.431 125.576 200.265L125.743 200.183C126.084 199.992 126.364 199.726 126.557 199.412C126.749 199.097 126.848 198.744 126.843 198.387V168.75C126.844 167.355 126.431 165.984 125.645 164.775C124.859 163.565 123.729 162.56 122.367 161.86Z" fill="#263238"/>
<path d="M97.8498 139.552C96.9847 139.103 95.9946 138.88 94.9929 138.907C93.9913 138.934 93.0184 139.211 92.1859 139.705L90.2814 140.833L88.2966 142.016C88.0488 142.163 87.8475 142.363 87.7117 142.599C87.5759 142.834 87.5101 143.096 87.5206 143.359C87.5312 143.623 87.6176 143.88 87.7718 144.106C87.926 144.332 88.1429 144.52 88.4017 144.651L119.163 160.228L122.255 161.783L122.403 161.871C123.792 162.601 124.938 163.646 125.722 164.897C126.506 166.147 126.902 167.56 126.868 168.991V198.387C126.87 198.747 126.767 199.101 126.57 199.415C126.373 199.73 126.088 199.994 125.742 200.183L133.348 196.388C134.235 195.944 134.972 195.299 135.485 194.519C135.998 193.74 136.268 192.853 136.266 191.951V163.47C136.27 162.221 135.901 160.993 135.199 159.909C134.497 158.826 133.485 157.925 132.266 157.297L97.8498 139.552Z" fill="#455A64"/>
<path d="M132.241 157.308L97.8498 139.552C96.9847 139.103 95.9946 138.88 94.9929 138.907C93.9913 138.934 93.0184 139.211 92.1859 139.705L90.2814 140.833L88.2966 142.016C88.0488 142.163 87.8475 142.363 87.7117 142.599C87.5759 142.834 87.5101 143.096 87.5206 143.359C87.5312 143.623 87.6176 143.88 87.7718 144.106C87.926 144.332 88.1429 144.52 88.4017 144.651L119.163 160.228L122.255 161.783L122.403 161.871C123.91 162.625 125.117 163.773 125.86 165.157L135.135 159.888C134.439 158.821 133.441 157.932 132.241 157.308Z" fill="#37474F"/>
<path d="M108.48 175.777V211.455L79.1152 196.437V160.759L108.48 175.777Z" fill="#1B4965"/>
<path opacity="0.4" d="M108.48 175.777V211.455L79.1152 196.437V160.759L108.48 175.777Z" fill="black"/>
<path d="M110.798 174.633V210.316L108.479 211.455V175.777L110.798 174.633Z" fill="#1B4965"/>
<path d="M81.4338 189.651V225.329L52.0757 210.316V174.633L81.4338 189.651Z" fill="#1B4965"/>
<path opacity="0.4" d="M81.4338 189.651V225.329L52.0757 210.316V174.633L81.4338 189.651Z" fill="black"/>
<path d="M83.7589 188.512V224.19L81.434 225.329V189.651L83.7589 188.512Z" fill="#1B4965"/>
<path d="M81.434 192.494L110.798 177.481V174.633L81.434 189.651V192.494Z" fill="#1B4965"/>
<path d="M81.434 225.329L110.798 210.316V189.821L81.434 204.839V225.329Z" fill="#1B4965"/>
<path d="M81.4336 189.651L110.798 174.633L81.4336 159.62L52.0754 174.633L81.4336 189.651Z" fill="#1B4965"/>
<path opacity="0.2" d="M81.4336 189.651L110.798 174.633L81.4336 159.62L52.0754 174.633L81.4336 189.651Z" fill="black"/>
<path d="M83.7585 204.182L108.479 191.54V178.658L83.7585 191.299V204.182Z" fill="#1B4965"/>
<path opacity="0.6" d="M83.7585 204.182L108.479 191.54V178.658L83.7585 191.299V204.182Z" fill="white"/>
<path d="M95.8655 190.352C95.8655 190.667 95.971 190.975 96.1687 191.238C96.3664 191.5 96.6475 191.704 96.9762 191.825C97.305 191.945 97.6668 191.977 98.0158 191.915C98.3649 191.854 98.6855 191.702 98.9371 191.479C99.1888 191.256 99.3601 190.972 99.4296 190.663C99.499 190.354 99.4634 190.033 99.3272 189.742C99.191 189.451 98.9604 189.202 98.6645 189.027C98.3686 188.852 98.0207 188.758 97.6648 188.758C97.1876 188.758 96.7299 188.926 96.3925 189.225C96.0551 189.524 95.8655 189.929 95.8655 190.352Z" fill="white"/>
<path d="M83.7585 220.213L108.479 207.572V194.69L83.7585 207.331V220.213Z" fill="#1B4965"/>
<path opacity="0.6" d="M83.7585 220.213L108.479 207.572V194.69L83.7585 207.331V220.213Z" fill="white"/>
<path d="M95.8655 206.383C95.8655 206.699 95.971 207.007 96.1687 207.269C96.3664 207.531 96.6475 207.735 96.9762 207.856C97.305 207.977 97.6668 208.008 98.0158 207.947C98.3649 207.885 98.6855 207.733 98.9371 207.511C99.1888 207.288 99.3601 207.004 99.4296 206.694C99.499 206.385 99.4634 206.065 99.3272 205.774C99.191 205.482 98.9604 205.233 98.6645 205.058C98.3686 204.883 98.0207 204.79 97.6648 204.79C97.1876 204.79 96.7299 204.958 96.3925 205.256C96.0551 205.555 95.8655 205.961 95.8655 206.383Z" fill="white"/>
<path d="M73.7419 172.206C74.1616 171.56 74.7789 171.032 75.5226 170.684C78.3113 169.26 82.8313 169.26 85.6199 170.684C86.3636 171.032 86.981 171.56 87.4007 172.206H87.7099V173.269C87.7099 174.206 87.0173 175.137 85.6199 175.849C82.8313 177.278 78.3113 177.278 75.5226 175.849C74.1252 175.137 73.4265 174.206 73.4265 173.269V172.206H73.7419Z" fill="#263238"/>
<path d="M75.5226 174.786C78.3113 176.216 82.8313 176.216 85.6199 174.786C88.4086 173.357 88.4086 171.051 85.6199 169.621C82.8313 168.192 78.3113 168.197 75.5226 169.621C72.734 171.045 72.734 173.362 75.5226 174.786Z" fill="#37474F"/>
<path d="M80.7228 172.206H80.4198C80.0492 172.206 79.6937 172.076 79.4317 171.844C79.1696 171.612 79.0224 171.297 79.0224 170.968V141.94H82.114V170.968C82.114 171.297 81.9668 171.612 81.7047 171.844C81.4427 172.076 81.0872 172.206 80.7166 172.206H80.7228Z" fill="#263238"/>
<path d="M66.7299 153.409C66.7732 153.261 66.8288 153.108 66.8907 152.96L71.2684 140.625H89.8739L94.2516 152.96C94.3134 153.108 94.3691 153.261 94.4124 153.409C95.0307 155.567 93.7013 157.84 90.4613 159.5C84.9953 162.287 76.1408 162.287 70.6748 159.5C67.441 157.84 66.1239 155.556 66.7299 153.409Z" fill="#1B4965"/>
<path opacity="0.4" d="M66.7299 153.409C66.7732 153.261 66.8288 153.108 66.8907 152.96L71.2684 140.625H89.8739L94.2516 152.96C94.3134 153.108 94.3691 153.261 94.4124 153.409C95.0307 155.567 93.7013 157.84 90.4613 159.5C84.9953 162.287 76.1408 162.287 70.6748 159.5C67.441 157.84 66.1239 155.556 66.7299 153.409Z" fill="white"/>
<path d="M80.568 146.119C85.7587 146.119 89.9665 143.968 89.9665 141.315C89.9665 138.663 85.7587 136.512 80.568 136.512C75.3773 136.512 71.1694 138.663 71.1694 141.315C71.1694 143.968 75.3773 146.119 80.568 146.119Z" fill="#1B4965"/>
<path d="M80.568 136.506V137.481C82.6899 137.438 84.789 137.878 86.6646 138.758C88.0806 139.481 88.8659 140.401 88.8659 141.31C88.8659 142.219 88.0806 143.134 86.6646 143.862C84.7732 144.702 82.6867 145.139 80.571 145.139C78.4554 145.139 76.3689 144.702 74.4774 143.862C73.0615 143.134 72.2762 142.219 72.2762 141.31C72.2762 140.401 73.0615 139.481 74.4774 138.758C76.3511 137.878 78.448 137.439 80.568 137.481V136.501V136.506ZM80.568 136.501C78.2552 136.462 75.9696 136.947 73.9271 137.909C70.2543 139.787 70.2543 142.838 73.9271 144.706C75.9861 145.631 78.2623 146.113 80.571 146.113C82.8798 146.113 85.156 145.631 87.215 144.706C90.8878 142.833 90.8878 139.776 87.215 137.909C85.1706 136.946 82.8827 136.462 80.568 136.501Z" fill="#1B4965"/>
<path opacity="0.2" d="M80.568 136.506V137.481C82.6899 137.438 84.789 137.878 86.6646 138.758C88.0806 139.481 88.8659 140.401 88.8659 141.31C88.8659 142.219 88.0806 143.134 86.6646 143.862C84.7732 144.702 82.6867 145.139 80.571 145.139C78.4554 145.139 76.3689 144.702 74.4774 143.862C73.0615 143.134 72.2762 142.219 72.2762 141.31C72.2762 140.401 73.0615 139.481 74.4774 138.758C76.3511 137.878 78.448 137.439 80.568 137.481V136.501V136.506ZM80.568 136.501C78.2552 136.462 75.9696 136.947 73.9271 137.909C70.2543 139.787 70.2543 142.838 73.9271 144.706C75.9861 145.631 78.2623 146.113 80.571 146.113C82.8798 146.113 85.156 145.631 87.215 144.706C90.8878 142.833 90.8878 139.776 87.215 137.909C85.1706 136.946 82.8827 136.462 80.568 136.501Z" fill="white"/>
<path d="M261.837 60.9165L179.086 18.5948C178.14 18.1073 177.281 18.1457 176.681 18.5948L173.836 20.342L175.766 22.4616V81.6145C175.766 83.778 177.256 86.292 179.086 87.234L261.02 129.118L261.175 131.418L264.192 129.589C264.539 129.3 264.806 128.945 264.974 128.551C265.142 128.158 265.207 127.735 265.163 127.316V66.5196C265.157 64.3671 263.673 61.8531 261.837 60.9165Z" fill="#1B4965" fill-opacity="0.4"/>
<path opacity="0.3" d="M261.837 60.9165L179.086 18.5948C178.14 18.1073 177.281 18.1457 176.681 18.5948L173.836 20.342L175.766 22.4616V81.6145C175.766 83.778 177.256 86.292 179.086 87.234L261.02 129.118L261.175 131.418L264.192 129.589C264.539 129.3 264.806 128.945 264.974 128.551C265.142 128.158 265.207 127.735 265.163 127.316V66.5196C265.157 64.3671 263.673 61.8531 261.837 60.9165Z" fill="black"/>
<path d="M259.023 131.254L176.266 88.9321C174.411 87.9955 172.946 85.4815 172.946 83.3126V22.5165C172.946 20.3531 174.436 19.3562 176.266 20.3257L259.023 62.6419C260.878 63.584 262.337 66.098 262.337 68.2614V129.057C262.337 131.199 260.853 132.19 259.023 131.254Z" fill="#1B4965" fill-opacity="0.4"/>
<path d="M243.565 123.35L249.334 126.303L208.289 36.6914L201.822 33.3832L243.565 123.35Z" fill="#1B4965" fill-opacity="0.4"/>
<path opacity="0.2" d="M243.565 123.35L249.334 126.303L208.289 36.6914L201.822 33.3832L243.565 123.35Z" fill="white"/>
<path d="M256.556 130.005L258.566 130.985L217.515 41.3743L214.819 40.0378L256.556 130.005Z" fill="#1B4965" fill-opacity="0.4"/>
<path opacity="0.2" d="M256.556 130.005L258.566 130.985L217.515 41.3743L214.819 40.0378L256.556 130.005Z" fill="white"/>
<path d="M184.187 32.901C184.187 34.1443 183.198 34.6482 181.98 34.0293C181.344 33.6608 180.813 33.1659 180.431 32.584C180.049 32.0021 179.826 31.3492 179.778 30.6773C179.778 29.4285 180.768 28.9246 181.98 29.549C182.618 29.916 183.15 30.4104 183.533 30.9926C183.917 31.5747 184.14 32.2283 184.187 32.901Z" fill="#455A64"/>
<path d="M197.716 39.8022C197.618 39.8018 197.522 39.7792 197.438 39.7365L186.877 34.3306C186.813 34.2982 186.758 34.2551 186.713 34.2037C186.669 34.1524 186.636 34.0937 186.617 34.0312C186.598 33.9686 186.593 33.9034 186.603 33.8392C186.612 33.7749 186.636 33.713 186.673 33.6569C186.709 33.6008 186.758 33.5516 186.816 33.5122C186.874 33.4727 186.94 33.4438 187.011 33.427C187.081 33.4102 187.155 33.4059 187.227 33.4144C187.3 33.4228 187.37 33.4438 187.433 33.4762L197.994 38.893C198.057 38.9254 198.113 38.9685 198.158 39.0198C198.202 39.0712 198.235 39.1298 198.254 39.1924C198.273 39.255 198.278 39.3202 198.268 39.3845C198.258 39.4487 198.235 39.5106 198.198 39.5667C198.148 39.64 198.077 39.7004 197.993 39.7418C197.908 39.7831 197.812 39.804 197.716 39.8022Z" fill="#455A64"/>
<path d="M255.455 117.501C255.316 117.502 255.179 117.47 255.059 117.408L179.401 78.7007C179.31 78.6543 179.23 78.5925 179.166 78.5188C179.102 78.4451 179.055 78.361 179.028 78.2712C179.001 78.1815 178.994 78.0878 179.007 77.9957C179.021 77.9035 179.055 77.8146 179.107 77.734C179.16 77.6534 179.23 77.5828 179.313 77.5261C179.396 77.4695 179.491 77.4279 179.592 77.4037C179.694 77.3796 179.799 77.3733 179.903 77.3854C180.007 77.3974 180.108 77.4275 180.199 77.4738L255.869 116.181C256.023 116.258 256.142 116.379 256.21 116.523C256.278 116.667 256.29 116.827 256.244 116.978C256.198 117.129 256.097 117.262 255.956 117.357C255.816 117.451 255.644 117.502 255.468 117.501H255.455Z" fill="#455A64"/>
<path d="M255.455 67.3742C255.384 67.3739 255.313 67.3569 255.251 67.3249L253.217 66.2788C253.17 66.2544 253.129 66.2221 253.095 66.1835C253.062 66.145 253.038 66.101 253.025 66.0542C253.011 66.0073 253.008 65.9585 253.015 65.9106C253.023 65.8627 253.041 65.8165 253.069 65.7749C253.095 65.732 253.131 65.6943 253.174 65.6641C253.217 65.6338 253.267 65.6116 253.32 65.5988C253.373 65.586 253.429 65.5829 253.483 65.5896C253.538 65.5963 253.59 65.6128 253.638 65.6379L255.659 66.6731C255.749 66.7083 255.822 66.7706 255.865 66.8488C255.907 66.927 255.917 67.0161 255.893 67.1002C255.868 67.1844 255.811 67.2581 255.731 67.3082C255.651 67.3584 255.553 67.3818 255.455 67.3742Z" fill="#455A64"/>
<path d="M255.455 68.6885C255.384 68.6883 255.313 68.6713 255.251 68.6392L253.223 67.6041C253.176 67.5797 253.135 67.5474 253.102 67.5088C253.069 67.4703 253.045 67.4263 253.031 67.3795C253.017 67.3326 253.014 67.2839 253.021 67.2359C253.029 67.188 253.047 67.1419 253.075 67.1002C253.101 67.0573 253.137 67.0196 253.18 66.9894C253.224 66.9591 253.273 66.9369 253.326 66.9241C253.38 66.9114 253.435 66.9082 253.49 66.9149C253.544 66.9217 253.597 66.9381 253.644 66.9633L255.666 67.9984C255.748 68.0376 255.813 68.1003 255.85 68.1764C255.887 68.2525 255.894 68.3374 255.87 68.4174C255.845 68.4974 255.791 68.5677 255.716 68.617C255.641 68.6662 255.549 68.6914 255.455 68.6885Z" fill="#455A64"/>
<path d="M255.455 70.0086C255.384 70.0084 255.313 69.9914 255.251 69.9593L253.223 68.9241C253.176 68.8998 253.135 68.8674 253.102 68.8289C253.069 68.7904 253.045 68.7464 253.031 68.6996C253.017 68.6527 253.014 68.6039 253.021 68.556C253.029 68.5081 253.047 68.4619 253.075 68.4203C253.101 68.3774 253.137 68.3397 253.18 68.3095C253.224 68.2792 253.273 68.257 253.326 68.2442C253.38 68.2314 253.435 68.2283 253.49 68.235C253.544 68.2417 253.597 68.2582 253.644 68.2833L255.666 69.3185C255.748 69.3577 255.813 69.4204 255.85 69.4965C255.887 69.5725 255.894 69.6575 255.87 69.7375C255.845 69.8175 255.791 69.8878 255.716 69.937C255.641 69.9863 255.549 70.0115 255.455 70.0086Z" fill="#455A64"/>
<path d="M209.773 63.4908V73.6618C209.773 73.7581 209.797 73.8532 209.841 73.9411C209.886 74.0289 209.951 74.1074 210.032 74.1715C210.113 74.2356 210.208 74.2838 210.312 74.313C210.415 74.3422 210.525 74.3517 210.633 74.341L221.064 73.2455C221.208 73.2302 221.345 73.1791 221.458 73.0981C221.571 73.0171 221.656 72.9096 221.703 72.7877C221.75 72.6659 221.758 72.5348 221.724 72.4094C221.691 72.284 221.619 72.1694 221.515 72.0789L211.084 62.9924C210.976 62.8956 210.837 62.8299 210.686 62.8039C210.535 62.7779 210.379 62.7927 210.237 62.8464C210.096 62.9002 209.976 62.9904 209.893 63.1053C209.811 63.2202 209.769 63.3545 209.773 63.4908Z" fill="#FAFAFA"/>
<path d="M211.974 93.7354L180.18 77.4738C180.089 77.4275 179.989 77.3974 179.885 77.3854C179.781 77.3733 179.675 77.3796 179.574 77.4037C179.472 77.4279 179.377 77.4695 179.294 77.5261C179.211 77.5828 179.141 77.6534 179.089 77.734C179.036 77.8146 179.002 77.9035 178.989 77.9957C178.975 78.0878 178.982 78.1815 179.01 78.2712C179.037 78.361 179.084 78.4451 179.148 78.5188C179.212 78.5925 179.292 78.6543 179.383 78.7007L211.974 95.3731V93.7354Z" fill="#EBEBEB"/>
<path d="M214.176 95.5155C214.176 96.7588 213.193 97.2627 211.975 96.6438C211.333 96.2727 210.799 95.7727 210.417 95.1846C210.034 94.5964 209.814 93.9367 209.773 93.2589C209.773 92.0156 210.756 91.5117 211.975 92.1635C212.612 92.5308 213.143 93.0254 213.525 93.6075C213.908 94.1897 214.13 94.8432 214.176 95.5155Z" fill="#FAFAFA"/>
<path d="M186.073 85.9964V88.6693C186.074 88.6945 186.08 88.7193 186.092 88.7422C186.105 88.765 186.122 88.7853 186.144 88.8018C186.165 88.8183 186.19 88.8307 186.218 88.838C186.245 88.8454 186.274 88.8476 186.302 88.8445L189.041 88.5652C189.079 88.5607 189.114 88.547 189.144 88.5256C189.173 88.5042 189.195 88.476 189.207 88.4441C189.219 88.4122 189.221 88.378 189.213 88.3452C189.204 88.3124 189.185 88.2823 189.158 88.2585L186.419 85.865C186.39 85.8401 186.354 85.8234 186.314 85.8169C186.275 85.8104 186.234 85.8144 186.197 85.8285C186.16 85.8425 186.128 85.866 186.106 85.8959C186.084 85.9258 186.073 85.9607 186.073 85.9964Z" fill="#FAFAFA"/>
<path d="M192.825 89.6495V92.3223C192.826 92.3471 192.832 92.3714 192.844 92.3938C192.856 92.4162 192.873 92.4363 192.894 92.4527C192.914 92.4691 192.939 92.4816 192.965 92.4893C192.992 92.4971 193.02 92.4999 193.048 92.4976L195.793 92.2183C195.831 92.2138 195.866 92.2001 195.896 92.1787C195.925 92.1573 195.947 92.1291 195.959 92.0972C195.971 92.0653 195.973 92.031 195.965 91.9982C195.956 91.9654 195.937 91.9354 195.911 91.9116L193.171 89.5181C193.142 89.4932 193.106 89.4764 193.066 89.4699C193.027 89.4634 192.986 89.4675 192.949 89.4815C192.912 89.4956 192.88 89.519 192.858 89.5489C192.836 89.5788 192.825 89.6138 192.825 89.6495Z" fill="#FAFAFA"/>
<path d="M195.972 94.0258C195.94 94.0265 195.908 94.0215 195.878 94.0111C195.848 94.0007 195.821 93.9851 195.798 93.9652C195.775 93.9453 195.757 93.9215 195.744 93.8952C195.732 93.8689 195.725 93.8407 195.725 93.8122V90.8326C195.725 90.7745 195.751 90.7188 195.798 90.6777C195.844 90.6366 195.907 90.6135 195.972 90.6135C196.038 90.6135 196.101 90.6366 196.147 90.6777C196.194 90.7188 196.22 90.7745 196.22 90.8326V93.8122C196.22 93.8407 196.213 93.8689 196.201 93.8952C196.188 93.9215 196.17 93.9453 196.147 93.9652C196.124 93.9851 196.097 94.0007 196.067 94.0111C196.037 94.0215 196.005 94.0265 195.972 94.0258Z" fill="#FAFAFA"/>
<path d="M182.375 86.3469V83.674C182.376 83.6483 182.37 83.6229 182.358 83.5994C182.346 83.5759 182.329 83.5549 182.307 83.5378C182.286 83.5207 182.26 83.5079 182.232 83.5002C182.205 83.4925 182.175 83.4902 182.147 83.4933L179.401 83.8055C179.364 83.8099 179.328 83.8236 179.299 83.845C179.269 83.8664 179.247 83.8947 179.235 83.9265C179.223 83.9584 179.221 83.9927 179.23 84.0255C179.238 84.0583 179.257 84.0883 179.284 84.1122L182.023 86.5002C182.053 86.5295 182.092 86.5494 182.136 86.5568C182.18 86.5643 182.225 86.5589 182.265 86.5416C182.305 86.5242 182.337 86.4958 182.357 86.4607C182.377 86.4255 182.383 86.3856 182.375 86.3469Z" fill="#FAFAFA"/>
<path d="M179.228 85.3829C179.162 85.3829 179.099 85.3598 179.053 85.3187C179.007 85.2776 178.981 85.2219 178.981 85.1638V82.1623C178.981 82.1042 179.007 82.0485 179.053 82.0074C179.099 81.9663 179.162 81.9432 179.228 81.9432C179.294 81.9432 179.356 81.9663 179.403 82.0074C179.449 82.0485 179.475 82.1042 179.475 82.1623V85.1419C179.479 85.1724 179.475 85.2033 179.464 85.2325C179.453 85.2616 179.435 85.2884 179.412 85.3112C179.389 85.3339 179.36 85.352 179.329 85.3644C179.297 85.3767 179.263 85.383 179.228 85.3829Z" fill="#FAFAFA"/>
<path d="M252.487 120.272C252.414 120.272 252.343 120.246 252.291 120.2C252.238 120.154 252.209 120.091 252.209 120.026V118.93C252.211 118.887 252.224 118.845 252.249 118.808C252.274 118.771 252.31 118.741 252.352 118.719C252.394 118.698 252.442 118.686 252.49 118.686C252.539 118.685 252.587 118.696 252.63 118.717L253.662 119.264C253.726 119.296 253.773 119.35 253.792 119.412C253.812 119.475 253.803 119.542 253.767 119.598C253.73 119.655 253.669 119.697 253.597 119.714C253.525 119.731 253.449 119.723 253.384 119.691L252.766 119.374V120.031C252.764 120.095 252.734 120.157 252.682 120.202C252.63 120.247 252.56 120.272 252.487 120.272Z" fill="#FAFAFA"/>
<path d="M253.526 123.022C253.476 123.021 253.428 123.01 253.384 122.989L252.351 122.441C252.308 122.42 252.273 122.389 252.248 122.351C252.223 122.314 252.209 122.271 252.209 122.227V121.242C252.209 121.176 252.238 121.114 252.291 121.067C252.343 121.021 252.414 120.995 252.487 120.995C252.561 120.995 252.632 121.021 252.684 121.067C252.736 121.114 252.766 121.176 252.766 121.242V122.085L253.662 122.545C253.726 122.577 253.773 122.63 253.792 122.693C253.812 122.756 253.803 122.823 253.767 122.879C253.747 122.921 253.713 122.957 253.671 122.982C253.628 123.007 253.578 123.021 253.526 123.022Z" fill="#FAFAFA"/>
<path d="M255.721 124.144C255.671 124.142 255.622 124.129 255.579 124.106L254.509 123.558C254.446 123.524 254.401 123.47 254.382 123.406C254.364 123.343 254.374 123.276 254.41 123.219C254.448 123.163 254.508 123.123 254.579 123.107C254.649 123.09 254.724 123.099 254.787 123.131L255.443 123.465V122.917C255.443 122.852 255.472 122.789 255.524 122.743C255.577 122.697 255.647 122.671 255.721 122.671C255.795 122.671 255.866 122.697 255.918 122.743C255.97 122.789 255.999 122.852 255.999 122.917V123.881C255.999 123.924 255.985 123.966 255.96 124.003C255.935 124.039 255.9 124.069 255.857 124.09C255.818 124.118 255.771 124.137 255.721 124.144Z" fill="#FAFAFA"/>
<path d="M255.721 121.915C255.647 121.915 255.577 121.889 255.524 121.843C255.472 121.797 255.443 121.734 255.443 121.669V120.738L254.825 120.409C254.793 120.393 254.765 120.371 254.743 120.346C254.721 120.32 254.704 120.291 254.695 120.259C254.685 120.228 254.683 120.195 254.688 120.163C254.692 120.131 254.704 120.1 254.723 120.072C254.741 120.044 254.765 120.019 254.794 120C254.823 119.98 254.856 119.966 254.892 119.957C254.927 119.949 254.964 119.947 255 119.951C255.036 119.955 255.071 119.966 255.103 119.982L255.882 120.382C255.925 120.402 255.961 120.433 255.986 120.471C256.011 120.509 256.025 120.551 256.024 120.595V121.691C256.021 121.723 256.011 121.755 255.994 121.783C255.977 121.812 255.954 121.838 255.925 121.859C255.897 121.88 255.865 121.895 255.83 121.905C255.795 121.915 255.758 121.918 255.721 121.915Z" fill="#FAFAFA"/>
<path d="M248.567 120.502C248.517 120.502 248.468 120.491 248.425 120.469L244.498 118.459C244.457 118.436 244.424 118.405 244.4 118.368C244.376 118.33 244.363 118.288 244.362 118.246V114.959C244.363 114.916 244.376 114.874 244.4 114.837C244.424 114.8 244.457 114.768 244.498 114.746C244.541 114.724 244.589 114.713 244.637 114.713C244.686 114.713 244.734 114.724 244.777 114.746L248.703 116.756C248.746 116.777 248.782 116.808 248.807 116.846C248.832 116.883 248.845 116.926 248.845 116.969V120.256C248.844 120.321 248.814 120.382 248.762 120.428C248.71 120.474 248.64 120.501 248.567 120.502ZM244.919 118.103L248.289 119.828V117.09L244.944 115.354L244.919 118.103Z" fill="#FAFAFA"/>
<path d="M167.653 12.4605L143.476 0.180765C143.297 0.0633688 143.081 0 142.858 0C142.635 0 142.419 0.0633688 142.24 0.180765L140.774 1.10092L141.77 2.19635V18.0252C141.779 18.5882 141.938 19.1414 142.233 19.64C142.529 20.1386 142.952 20.5686 143.47 20.8952L167.226 32.9449L167.307 34.128L168.846 33.1914C169.025 33.0436 169.162 32.8617 169.249 32.6595C169.336 32.4573 169.369 32.2402 169.347 32.0247V15.3414C169.34 14.777 169.184 14.222 168.889 13.7214C168.595 13.2208 168.171 12.7888 167.653 12.4605Z" fill="#1B4965" fill-opacity="0.4"/>
<path opacity="0.3" d="M167.653 12.4605L143.476 0.180765C143.297 0.0633688 143.081 0 142.858 0C142.635 0 142.419 0.0633688 142.24 0.180765L140.774 1.10092L141.77 2.19635V18.0252C141.779 18.5882 141.938 19.1414 142.233 19.64C142.529 20.1386 142.952 20.5686 143.47 20.8952L167.226 32.9449L167.307 34.128L168.846 33.1914C169.025 33.0436 169.162 32.8617 169.249 32.6595C169.336 32.4573 169.369 32.2402 169.347 32.0247V15.3414C169.34 14.777 169.184 14.222 168.889 13.7214C168.595 13.2208 168.171 12.7888 167.653 12.4605Z" fill="black"/>
<path d="M166.206 34.0239L142.029 21.7442C141.512 21.4176 141.088 20.9876 140.793 20.489C140.497 19.9904 140.338 19.4372 140.329 18.8742V2.19637C140.329 1.10094 141.09 0.580617 142.029 1.0626L166.206 13.3368C166.723 13.6652 167.146 14.0964 167.442 14.5957C167.737 15.095 167.896 15.6487 167.906 16.2123V32.8682C167.906 33.9965 167.146 34.5114 166.206 34.0239Z" fill="#1B4965" fill-opacity="0.4"/>
<path d="M146.073 7.49814C146.073 8.13348 145.573 8.39091 144.948 8.04585C144.619 7.85701 144.345 7.6016 144.15 7.30067C143.954 6.99974 143.842 6.66193 143.823 6.31508C143.823 5.67973 144.324 5.42231 144.948 5.76737C145.277 5.95621 145.551 6.21162 145.746 6.51255C145.942 6.81348 146.054 7.15129 146.073 7.49814Z" fill="#455A64"/>
<path d="M152.992 11.0255C152.942 11.0258 152.893 11.0144 152.85 10.9926L147.452 8.2212C147.415 8.2069 147.383 8.18592 147.356 8.15961C147.329 8.1333 147.309 8.10226 147.296 8.06852C147.284 8.03478 147.28 7.99911 147.284 7.96383C147.288 7.92856 147.301 7.89448 147.321 7.86382C147.341 7.83316 147.368 7.80662 147.401 7.78593C147.433 7.76524 147.47 7.75087 147.51 7.74376C147.549 7.73665 147.589 7.73696 147.628 7.74467C147.668 7.75238 147.704 7.76732 147.737 7.7885L153.134 10.5271C153.199 10.5613 153.246 10.6164 153.266 10.6808C153.285 10.7452 153.276 10.8137 153.24 10.8721C153.218 10.9149 153.183 10.9518 153.14 10.9787C153.096 11.0057 153.045 11.0219 152.992 11.0255Z" fill="#455A64"/>
<path d="M151.057 14.9416V20.1449C151.058 20.1939 151.07 20.2422 151.093 20.2868C151.116 20.3314 151.149 20.3712 151.19 20.4037C151.232 20.4362 151.28 20.4607 151.333 20.4756C151.386 20.4904 151.441 20.4953 151.496 20.49L156.826 19.9422C156.9 19.9349 156.971 19.9091 157.029 19.8679C157.087 19.8267 157.131 19.7717 157.156 19.7093C157.18 19.6469 157.185 19.5796 157.168 19.5151C157.151 19.4507 157.114 19.3918 157.061 19.3452L151.731 14.6952C151.676 14.6467 151.606 14.6138 151.529 14.6005C151.453 14.5872 151.374 14.5941 151.302 14.6204C151.23 14.6467 151.168 14.6912 151.125 14.7483C151.081 14.8055 151.058 14.8727 151.057 14.9416Z" fill="#FAFAFA"/>
<path d="M167.653 38.3728L143.476 26.093C143.297 25.9773 143.08 25.9149 142.858 25.9149C142.636 25.9149 142.419 25.9773 142.24 26.093L140.78 26.9913L141.776 28.0867V43.9101C141.785 44.4731 141.944 45.0263 142.239 45.5249C142.535 46.0235 142.958 46.4535 143.476 46.7801L167.232 58.8298L167.313 60.0074L168.852 59.0708C169.031 58.923 169.169 58.7411 169.255 58.5389C169.342 58.3367 169.376 58.1196 169.353 57.9042V41.2428C169.343 40.6799 169.184 40.127 168.888 39.6286C168.593 39.1301 168.17 38.7 167.653 38.3728Z" fill="#1B4965" fill-opacity="0.4"/>
<path opacity="0.3" d="M167.653 38.3728L143.476 26.093C143.297 25.9773 143.08 25.9149 142.858 25.9149C142.636 25.9149 142.419 25.9773 142.24 26.093L140.78 26.9913L141.776 28.0867V43.9101C141.785 44.4731 141.944 45.0263 142.239 45.5249C142.535 46.0235 142.958 46.4535 143.476 46.7801L167.232 58.8298L167.313 60.0074L168.852 59.0708C169.031 58.923 169.169 58.7411 169.255 58.5389C169.342 58.3367 169.376 58.1196 169.353 57.9042V41.2428C169.343 40.6799 169.184 40.127 168.888 39.6286C168.593 39.1301 168.17 38.7 167.653 38.3728Z" fill="black"/>
<path d="M166.206 59.9362L142.029 47.6565C141.512 47.3281 141.089 46.8969 140.794 46.3976C140.499 45.8983 140.339 45.3446 140.329 44.781V28.1086C140.329 27.0132 141.09 26.4655 142.029 26.9749L166.206 39.2546C166.724 39.5812 167.148 40.0112 167.443 40.5098C167.738 41.0084 167.897 41.5616 167.906 42.1246V58.8024C167.906 59.9088 167.146 60.4182 166.206 59.9362Z" fill="#1B4965" fill-opacity="0.4"/>
<path d="M146.073 33.4159C146.073 34.0513 145.573 34.3087 144.948 33.991C144.619 33.8022 144.345 33.5468 144.15 33.2459C143.954 32.9449 143.842 32.6071 143.823 32.2603C143.823 31.6249 144.324 31.3675 144.948 31.7126C145.273 31.8987 145.544 32.1498 145.74 32.4456C145.935 32.7415 146.049 33.0738 146.073 33.4159Z" fill="#455A64"/>
<path d="M152.992 36.9377C152.942 36.938 152.893 36.9267 152.85 36.9049L147.452 34.1389C147.415 34.1246 147.383 34.1036 147.356 34.0773C147.329 34.051 147.309 34.02 147.296 33.9862C147.284 33.9525 147.28 33.9168 147.284 33.8816C147.288 33.8463 147.301 33.8122 147.321 33.7815C147.341 33.7509 147.368 33.7243 147.401 33.7037C147.433 33.683 147.47 33.6686 147.51 33.6615C147.549 33.6544 147.589 33.6547 147.628 33.6624C147.668 33.6701 147.704 33.685 147.737 33.7062L153.134 36.4448C153.199 36.4791 153.246 36.5342 153.266 36.5985C153.285 36.6629 153.276 36.7315 153.24 36.7898C153.218 36.8324 153.183 36.8687 153.14 36.8948C153.096 36.9209 153.045 36.9358 152.992 36.9377Z" fill="#455A64"/>
<path d="M156.325 41.0839L151.218 41.9985L151.032 46.0023C150.83 45.9142 150.6 45.887 150.378 45.9249C150.156 45.9628 149.955 46.0637 149.803 46.2123C149.652 46.361 149.56 46.5492 149.54 46.7486C149.52 46.9479 149.575 47.1475 149.695 47.317C149.815 47.4866 149.994 47.6169 150.205 47.6882C150.416 47.7595 150.647 47.7679 150.864 47.7121C151.081 47.6564 151.272 47.5395 151.407 47.3792C151.542 47.2189 151.615 47.024 151.614 46.8239L151.91 43.1597L155.62 42.3819L155.658 45.8928C155.497 45.8299 155.322 45.8042 155.147 45.818C154.973 45.8318 154.805 45.8846 154.66 45.9716C154.515 46.0586 154.398 46.1768 154.318 46.3152C154.239 46.4536 154.201 46.6075 154.207 46.7626C154.214 46.9176 154.265 47.0686 154.355 47.2015C154.445 47.3343 154.573 47.4446 154.724 47.522C154.876 47.5993 155.048 47.6412 155.223 47.6436C155.398 47.646 155.571 47.609 155.726 47.5359C155.885 47.4603 156.019 47.3494 156.116 47.2141C156.212 47.0787 156.267 46.9235 156.276 46.7636L156.325 41.0839Z" fill="#FAFAFA"/>
</svg>
